<svg xmlns="http://www.w3.org/2000/svg" viewBox="0 0 800 400" width="800" height="400">
  <defs>
    <style>
      @keyframes fall1 { 0% { opacity: 0; transform: translateY(-400px); } 10% { opacity: 1; } 90% { opacity: 1; } 100% { opacity: 0; transform: translateY(400px); } }
      @keyframes fall2 { 0% { opacity: 0; transform: translateY(-350px); } 10% { opacity: 1; } 90% { opacity: 1; } 100% { opacity: 0; transform: translateY(450px); } }
      @keyframes fall3 { 0% { opacity: 0; transform: translateY(-300px); } 10% { opacity: 1; } 90% { opacity: 1; } 100% { opacity: 0; transform: translateY(500px); } }
      @keyframes glow { 0% { fill: #00FF00; } 50% { fill: #AAFFAA; } 100% { fill: #00FF00; } }
      @keyframes titlePulse { 0% { opacity: 0.8; fill: #00FF00; } 50% { opacity: 1; fill: #AAFFAA; } 100% { opacity: 0.8; fill: #00FF00; } }
      rect.bg { fill: #000000; }
      text.matrix { font-family: 'Courier New', monospace; font-size: 14px; fill: #00FF00; }
      text.dim { fill: #005500; }
      text.bright { fill: #AAFFAA; }
      text.title { font-family: 'Courier New', monospace; font-size: 36px; font-weight: bold; fill: #00FF00; animation: titlePulse 3s ease-in-out infinite; }
      text.subtitle { font-family: 'Courier New', monospace; font-size: 16px; fill: #00BB00; animation: glow 4s ease-in-out infinite; }
      .col1 { animation: fall1 4s linear infinite; }
      .col2 { animation: fall2 5s linear infinite; animation-delay: 0.5s; }
      .col3 { animation: fall3 3.5s linear infinite; animation-delay: 1s; }
      .col4 { animation: fall1 4.5s linear infinite; animation-delay: 1.5s; }
      .col5 { animation: fall2 3.8s linear infinite; animation-delay: 0.3s; }
      .col6 { animation: fall3 4.2s linear infinite; animation-delay: 2s; }
      .col7 { animation: fall1 3.2s linear infinite; animation-delay: 0.8s; }
      .col8 { animation: fall2 4.8s linear infinite; animation-delay: 1.2s; }
      .col9 { animation: fall3 3.6s linear infinite; animation-delay: 0.6s; }
      .col10 { animation: fall1 5.2s linear infinite; animation-delay: 1.8s; }
      .col11 { animation: fall2 3.4s linear infinite; animation-delay: 2.2s; }
      .col12 { animation: fall3 4.6s linear infinite; animation-delay: 0.2s; }
      .col13 { animation: fall1 3.9s linear infinite; animation-delay: 1.4s; }
      .col14 { animation: fall2 4.3s linear infinite; animation-delay: 0.9s; }
      .col15 { animation: fall3 5.1s linear infinite; animation-delay: 2.5s; }
      .col16 { animation: fall1 3.7s linear infinite; animation-delay: 1.7s; }
      .col17 { animation: fall2 4.1s linear infinite; animation-delay: 0.4s; }
      .col18 { animation: fall3 3.3s linear infinite; animation-delay: 2.1s; }
      .col19 { animation: fall1 4.7s linear infinite; animation-delay: 1.1s; }
      .col20 { animation: fall2 3.5s linear infinite; animation-delay: 0.7s; }
      .col21 { animation: fall3 4.4s linear infinite; animation-delay: 1.9s; }
      .col22 { animation: fall1 5.0s linear infinite; animation-delay: 2.3s; }
      .col23 { animation: fall2 3.1s linear infinite; animation-delay: 0.1s; }
      .col24 { animation: fall3 4.9s linear infinite; animation-delay: 1.6s; }
      .col25 { animation: fall1 3.8s linear infinite; animation-delay: 2.4s; }
      .col26 { animation: fall2 4.0s linear infinite; animation-delay: 1.3s; }
      .col27 { animation: fall3 5.3s linear infinite; animation-delay: 0.5s; }
      .col28 { animation: fall1 3.6s linear infinite; animation-delay: 2.0s; }
      .col29 { animation: fall2 4.5s linear infinite; animation-delay: 0.8s; }
      .col30 { animation: fall3 3.4s linear infinite; animation-delay: 1.5s; }
    </style>
  </defs>
  <rect class="bg" width="800" height="400"/>
  
  <!-- Falling columns -->
  <g class="col1"><text class="matrix dim" x="15" y="30">ア</text><text class="matrix" x="15" y="50">0</text><text class="matrix dim" x="15" y="70">カ</text><text class="matrix" x="15" y="90">1</text><text class="matrix dim" x="15" y="110">サ</text><text class="matrix bright" x="15" y="130">7</text><text class="matrix" x="15" y="150">タ</text><text class="matrix dim" x="15" y="170">3</text><text class="matrix" x="15" y="190">ナ</text><text class="matrix bright" x="15" y="210">9</text><text class="matrix dim" x="15" y="230">ハ</text><text class="matrix" x="15" y="250">5</text><text class="matrix dim" x="15" y="270">マ</text><text class="matrix bright" x="15" y="290">2</text><text class="matrix" x="15" y="310">ヤ</text><text class="matrix dim" x="15" y="330">6</text><text class="matrix" x="15" y="350">ラ</text><text class="matrix bright" x="15" y="370">0</text></g>
  <g class="col2"><text class="matrix" x="42" y="20">1</text><text class="matrix dim" x="42" y="40">イ</text><text class="matrix bright" x="42" y="60">4</text><text class="matrix" x="42" y="80">キ</text><text class="matrix dim" x="42" y="100">8</text><text class="matrix" x="42" y="120">シ</text><text class="matrix bright" x="42" y="140">2</text><text class="matrix dim" x="42" y="160">チ</text><text class="matrix" x="42" y="180">6</text><text class="matrix" x="42" y="200">ニ</text><text class="matrix bright" x="42" y="220">0</text><text class="matrix dim" x="42" y="240">ヒ</text><text class="matrix" x="42" y="260">3</text><text class="matrix" x="42" y="280">ミ</text><text class="matrix bright" x="42" y="300">7</text><text class="matrix dim" x="42" y="320">ユ</text><text class="matrix" x="42" y="340">1</text><text class="matrix" x="42" y="360">リ</text></g>
  <g class="col3"><text class="matrix dim" x="69" y="40">ウ</text><text class="matrix" x="69" y="60">5</text><text class="matrix bright" x="69" y="80">ク</text><text class="matrix dim" x="69" y="100">9</text><text class="matrix" x="69" y="120">ス</text><text class="matrix" x="69" y="140">3</text><text class="matrix bright" x="69" y="160">ツ</text><text class="matrix dim" x="69" y="180">7</text><text class="matrix" x="69" y="200">ヌ</text><text class="matrix" x="69" y="220">1</text><text class="matrix bright" x="69" y="240">フ</text><text class="matrix dim" x="69" y="260">4</text><text class="matrix" x="69" y="280">ム</text><text class="matrix bright" x="69" y="300">8</text><text class="matrix dim" x="69" y="320">ヨ</text><text class="matrix" x="69" y="340">2</text><text class="matrix" x="69" y="360">ル</text></g>
  <g class="col4"><text class="matrix" x="96" y="15">エ</text><text class="matrix dim" x="96" y="35">6</text><text class="matrix" x="96" y="55">ケ</text><text class="matrix bright" x="96" y="75">0</text><text class="matrix dim" x="96" y="95">セ</text><text class="matrix" x="96" y="115">4</text><text class="matrix" x="96" y="135">テ</text><text class="matrix bright" x="96" y="155">8</text><text class="matrix dim" x="96" y="175">ネ</text><text class="matrix" x="96" y="195">2</text><text class="matrix" x="96" y="215">ヘ</text><text class="matrix bright" x="96" y="235">5</text><text class="matrix dim" x="96" y="255">メ</text><text class="matrix" x="96" y="275">9</text><text class="matrix" x="96" y="295">レ</text><text class="matrix bright" x="96" y="315">3</text><text class="matrix dim" x="96" y="335">ワ</text><text class="matrix" x="96" y="355">7</text></g>
  <g class="col5"><text class="matrix bright" x="123" y="25">オ</text><text class="matrix" x="123" y="45">7</text><text class="matrix dim" x="123" y="65">コ</text><text class="matrix" x="123" y="85">1</text><text class="matrix" x="123" y="105">ソ</text><text class="matrix bright" x="123" y="125">5</text><text class="matrix dim" x="123" y="145">ト</text><text class="matrix" x="123" y="165">9</text><text class="matrix" x="123" y="185">ノ</text><text class="matrix bright" x="123" y="205">3</text><text class="matrix dim" x="123" y="225">ホ</text><text class="matrix" x="123" y="245">6</text><text class="matrix" x="123" y="265">モ</text><text class="matrix bright" x="123" y="285">0</text><text class="matrix dim" x="123" y="305">ロ</text><text class="matrix" x="123" y="325">4</text><text class="matrix" x="123" y="345">ヲ</text><text class="matrix bright" x="123" y="365">8</text></g>
  <g class="col6"><text class="matrix dim" x="150" y="10">3</text><text class="matrix" x="150" y="30">ガ</text><text class="matrix bright" x="150" y="50">8</text><text class="matrix" x="150" y="70">ギ</text><text class="matrix dim" x="150" y="90">2</text><text class="matrix" x="150" y="110">グ</text><text class="matrix" x="150" y="130">6</text><text class="matrix bright" x="150" y="150">ゲ</text><text class="matrix dim" x="150" y="170">0</text><text class="matrix" x="150" y="190">ゴ</text><text class="matrix" x="150" y="210">4</text><text class="matrix bright" x="150" y="230">ザ</text><text class="matrix dim" x="150" y="250">9</text><text class="matrix" x="150" y="270">ジ</text><text class="matrix" x="150" y="290">1</text><text class="matrix bright" x="150" y="310">ズ</text><text class="matrix dim" x="150" y="330">5</text><text class="matrix" x="150" y="350">ゼ</text></g>
  <g class="col7"><text class="matrix" x="177" y="35">ゾ</text><text class="matrix dim" x="177" y="55">7</text><text class="matrix bright" x="177" y="75">ダ</text><text class="matrix" x="177" y="95">3</text><text class="matrix dim" x="177" y="115">ヂ</text><text class="matrix" x="177" y="135">9</text><text class="matrix bright" x="177" y="155">ヅ</text><text class="matrix dim" x="177" y="175">1</text><text class="matrix" x="177" y="195">デ</text><text class="matrix" x="177" y="215">5</text><text class="matrix bright" x="177" y="235">ド</text><text class="matrix dim" x="177" y="255">8</text><text class="matrix" x="177" y="275">バ</text><text class="matrix" x="177" y="295">2</text><text class="matrix bright" x="177" y="315">ビ</text><text class="matrix dim" x="177" y="335">6</text><text class="matrix" x="177" y="355">ブ</text></g>
  <g class="col8"><text class="matrix bright" x="204" y="20">4</text><text class="matrix" x="204" y="40">ベ</text><text class="matrix dim" x="204" y="60">0</text><text class="matrix" x="204" y="80">ボ</text><text class="matrix bright" x="204" y="100">6</text><text class="matrix dim" x="204" y="120">パ</text><text class="matrix" x="204" y="140">2</text><text class="matrix" x="204" y="160">ピ</text><text class="matrix bright" x="204" y="180">8</text><text class="matrix dim" x="204" y="200">プ</text><text class="matrix" x="204" y="220">4</text><text class="matrix" x="204" y="240">ペ</text><text class="matrix bright" x="204" y="260">0</text><text class="matrix dim" x="204" y="280">ポ</text><text class="matrix" x="204" y="300">7</text><text class="matrix" x="204" y="320">ア</text><text class="matrix bright" x="204" y="340">3</text><text class="matrix dim" x="204" y="360">イ</text></g>
  <g class="col9"><text class="matrix dim" x="231" y="45">ウ</text><text class="matrix" x="231" y="65">9</text><text class="matrix" x="231" y="85">エ</text><text class="matrix bright" x="231" y="105">5</text><text class="matrix dim" x="231" y="125">オ</text><text class="matrix" x="231" y="145">1</text><text class="matrix bright" x="231" y="165">カ</text><text class="matrix" x="231" y="185">7</text><text class="matrix dim" x="231" y="205">キ</text><text class="matrix" x="231" y="225">3</text><text class="matrix" x="231" y="245">ク</text><text class="matrix bright" x="231" y="265">9</text><text class="matrix dim" x="231" y="285">ケ</text><text class="matrix" x="231" y="305">5</text><text class="matrix" x="231" y="325">コ</text><text class="matrix bright" x="231" y="345">1</text><text class="matrix dim" x="231" y="365">サ</text></g>
  
  <!-- Right side columns -->
  <g class="col10"><text class="matrix" x="570" y="30">シ</text><text class="matrix dim" x="570" y="50">6</text><text class="matrix bright" x="570" y="70">ス</text><text class="matrix" x="570" y="90">2</text><text class="matrix dim" x="570" y="110">セ</text><text class="matrix" x="570" y="130">8</text><text class="matrix bright" x="570" y="150">ソ</text><text class="matrix dim" x="570" y="170">4</text><text class="matrix" x="570" y="190">タ</text><text class="matrix" x="570" y="210">0</text><text class="matrix bright" x="570" y="230">チ</text><text class="matrix dim" x="570" y="250">7</text><text class="matrix" x="570" y="270">ツ</text><text class="matrix" x="570" y="290">3</text><text class="matrix bright" x="570" y="310">テ</text><text class="matrix dim" x="570" y="330">9</text><text class="matrix" x="570" y="350">ト</text><text class="matrix bright" x="570" y="370">5</text></g>
  <g class="col11"><text class="matrix dim" x="597" y="15">1</text><text class="matrix" x="597" y="35">ナ</text><text class="matrix bright" x="597" y="55">7</text><text class="matrix dim" x="597" y="75">ニ</text><text class="matrix" x="597" y="95">3</text><text class="matrix" x="597" y="115">ヌ</text><text class="matrix bright" x="597" y="135">9</text><text class="matrix" x="597" y="155">ネ</text><text class="matrix dim" x="597" y="175">5</text><text class="matrix" x="597" y="195">ノ</text><text class="matrix bright" x="597" y="215">0</text><text class="matrix" x="597" y="235">ハ</text><text class="matrix dim" x="597" y="255">6</text><text class="matrix" x="597" y="275">ヒ</text><text class="matrix bright" x="597" y="295">2</text><text class="matrix dim" x="597" y="315">フ</text><text class="matrix" x="597" y="335">8</text><text class="matrix" x="597" y="355">ヘ</text></g>
  <g class="col12"><text class="matrix" x="624" y="25">ホ</text><text class="matrix bright" x="624" y="45">4</text><text class="matrix dim" x="624" y="65">マ</text><text class="matrix" x="624" y="85">0</text><text class="matrix" x="624" y="105">ミ</text><text class="matrix bright" x="624" y="125">6</text><text class="matrix dim" x="624" y="145">ム</text><text class="matrix" x="624" y="165">2</text><text class="matrix" x="624" y="185">メ</text><text class="matrix bright" x="624" y="205">8</text><text class="matrix dim" x="624" y="225">モ</text><text class="matrix" x="624" y="245">4</text><text class="matrix bright" x="624" y="265">ヤ</text><text class="matrix" x="624" y="285">1</text><text class="matrix dim" x="624" y="305">ユ</text><text class="matrix" x="624" y="325">7</text><text class="matrix" x="624" y="345">ヨ</text><text class="matrix bright" x="624" y="365">3</text></g>
  <g class="col13"><text class="matrix bright" x="651" y="40">ラ</text><text class="matrix" x="651" y="60">5</text><text class="matrix dim" x="651" y="80">リ</text><text class="matrix" x="651" y="100">1</text><text class="matrix bright" x="651" y="120">ル</text><text class="matrix dim" x="651" y="140">7</text><text class="matrix" x="651" y="160">レ</text><text class="matrix" x="651" y="180">3</text><text class="matrix bright" x="651" y="200">ロ</text><text class="matrix dim" x="651" y="220">9</text><text class="matrix" x="651" y="240">ワ</text><text class="matrix" x="651" y="260">5</text><text class="matrix bright" x="651" y="280">ヲ</text><text class="matrix dim" x="651" y="300">0</text><text class="matrix" x="651" y="320">ン</text><text class="matrix bright" x="651" y="340">6</text><text class="matrix dim" x="651" y="360">2</text></g>
  <g class="col14"><text class="matrix dim" x="678" y="10">8</text><text class="matrix" x="678" y="30">ガ</text><text class="matrix" x="678" y="50">4</text><text class="matrix bright" x="678" y="70">ギ</text><text class="matrix dim" x="678" y="90">0</text><text class="matrix" x="678" y="110">グ</text><text class="matrix bright" x="678" y="130">6</text><text class="matrix" x="678" y="150">ゲ</text><text class="matrix dim" x="678" y="170">2</text><text class="matrix" x="678" y="190">ゴ</text><text class="matrix" x="678" y="210">8</text><text class="matrix bright" x="678" y="230">ザ</text><text class="matrix dim" x="678" y="250">3</text><text class="matrix" x="678" y="270">ジ</text><text class="matrix bright" x="678" y="290">9</text><text class="matrix" x="678" y="310">ズ</text><text class="matrix dim" x="678" y="330">5</text><text class="matrix" x="678" y="350">ゼ</text></g>
  <g class="col15"><text class="matrix" x="705" y="35">1</text><text class="matrix bright" x="705" y="55">ゾ</text><text class="matrix dim" x="705" y="75">7</text><text class="matrix" x="705" y="95">ダ</text><text class="matrix" x="705" y="115">3</text><text class="matrix bright" x="705" y="135">ヅ</text><text class="matrix dim" x="705" y="155">9</text><text class="matrix" x="705" y="175">デ</text><text class="matrix bright" x="705" y="195">5</text><text class="matrix" x="705" y="215">ド</text><text class="matrix dim" x="705" y="235">0</text><text class="matrix" x="705" y="255">バ</text><text class="matrix bright" x="705" y="275">6</text><text class="matrix dim" x="705" y="295">ビ</text><text class="matrix" x="705" y="315">2</text><text class="matrix" x="705" y="335">ブ</text><text class="matrix bright" x="705" y="355">8</text></g>
  <g class="col16"><text class="matrix dim" x="732" y="20">ベ</text><text class="matrix" x="732" y="40">4</text><text class="matrix bright" x="732" y="60">ボ</text><text class="matrix" x="732" y="80">0</text><text class="matrix dim" x="732" y="100">パ</text><text class="matrix" x="732" y="120">7</text><text class="matrix" x="732" y="140">ピ</text><text class="matrix bright" x="732" y="160">3</text><text class="matrix dim" x="732" y="180">プ</text><text class="matrix" x="732" y="200">9</text><text class="matrix bright" x="732" y="220">ペ</text><text class="matrix" x="732" y="240">5</text><text class="matrix dim" x="732" y="260">ポ</text><text class="matrix" x="732" y="280">1</text><text class="matrix bright" x="732" y="300">ア</text><text class="matrix" x="732" y="320">8</text><text class="matrix dim" x="732" y="340">イ</text><text class="matrix" x="732" y="360">4</text></g>
  <g class="col17"><text class="matrix bright" x="759" y="30">6</text><text class="matrix" x="759" y="50">ウ</text><text class="matrix dim" x="759" y="70">2</text><text class="matrix" x="759" y="90">エ</text><text class="matrix bright" x="759" y="110">8</text><text class="matrix dim" x="759" y="130">オ</text><text class="matrix" x="759" y="150">4</text><text class="matrix" x="759" y="170">カ</text><text class="matrix bright" x="759" y="190">0</text><text class="matrix dim" x="759" y="210">キ</text><text class="matrix" x="759" y="230">7</text><text class="matrix" x="759" y="250">ク</text><text class="matrix bright" x="759" y="270">3</text><text class="matrix dim" x="759" y="290">ケ</text><text class="matrix" x="759" y="310">9</text><text class="matrix bright" x="759" y="330">コ</text><text class="matrix dim" x="759" y="350">5</text><text class="matrix" x="759" y="370">1</text></g>
  
  <!-- Center content overlay -->
  <rect x="250" y="100" width="300" height="200" rx="5" fill="#000000" fill-opacity="0.85" stroke="#00FF00" stroke-width="1"/>
  
  <text class="title" x="400" y="165" text-anchor="middle">KIM K.</text>
  <text class="subtitle" x="400" y="200" text-anchor="middle">DevOps Engineer</text>
  
  <text class="matrix" x="400" y="230" text-anchor="middle" style="font-size:12px; fill:#009900;">312 School | Batch 25c</text>
  <text class="matrix" x="400" y="250" text-anchor="middle" style="font-size:11px; fill:#007700;">AWS · Terraform · Python · Git</text>
  <text class="matrix" x="400" y="275" text-anchor="middle" style="font-size:11px; fill:#00AA00; animation: glow 2s ease-in-out infinite;">&gt; Wake up, Kim...</text>
</svg>